<svg id="Layer_5" enable-background="new 0 0 64 64" height="512" viewBox="0 0 64 64" width="512" xmlns="http://www.w3.org/2000/svg"><path d="m61 33h-.784c-.859-1.913-2.385-4.039-4.282-5.935-.254-.254-.511-.5-.771-.739.946-.7 1.888-1.51 2.771-2.392 3.758-3.759 6.518-8.988 4.228-11.278l-2.818-2.818c-1.062-1.062-2.894-1.111-5.158-.142-1.977.848-4.151 2.399-6.121 4.369-1.273 1.273-2.379 2.653-3.232 4.005l-2.456-2.456c.397-1.134.623-2.347.623-3.614 0-6.065-4.935-11-11-11-4.985 0-9.2 3.336-10.545 7.89-3.24-2.473-6.931-3.92-8.798-2.052l-2.819 2.818c-2.29 2.29.469 7.52 4.228 11.278.463.463.938.901 1.418 1.314-.415.112-.845.254-1.298.448-1.977.848-4.151 2.399-6.121 4.369-.047.047-.087.096-.133.143-.323.327-.631.662-.93 1-.105.119-.21.236-.312.356-.306.36-.598.723-.873 1.089-.101.134-.196.267-.292.402-.226.315-.441.629-.641.942-.093.146-.182.289-.268.434-.188.313-.359.623-.517.93-.04.077-.093.158-.13.235l.01.005c-.066.134-.13.268-.19.4h-.789c-1.103 0-2 .897-2 2v2c0 1.103.897 2 2 2h.025c.528 13.322 11.525 23.999 24.975 23.999h8c13.45 0 24.447-10.677 24.975-24h.025c1.103 0 2-.897 2-2v-2c0-1.103-.897-2-2-2zm-3.011 0h-7.383c-.103-.099-.206-.196-.308-.298-1.794-1.794-3.195-3.746-3.945-5.494-.59-1.378-.701-2.537-.283-2.956.418-.42 1.579-.308 2.956.283 1.749.749 3.701 2.15 5.495 3.944 1.458 1.459 2.669 3.046 3.468 4.521zm-51.617-.616c.046-.076.089-.152.137-.228.208-.33.438-.663.68-.995.078-.107.154-.214.235-.321.254-.335.522-.669.806-1.001.091-.107.187-.213.281-.319.268-.303.546-.602.835-.896.047-.048.09-.096.138-.144 1.794-1.794 3.746-3.195 5.495-3.944 1.032-.443 1.943-.615 2.51-.498.187.039.338.111.442.215.418.419.307 1.578-.283 2.956-.75 1.748-2.15 3.7-3.946 5.495-.102.102-.204.198-.307.297h-7.366c.111-.206.217-.409.343-.617zm11.233-13.575c.75.694 1.52 1.325 2.293 1.879l-1.382 1.382c-.773-.535-1.553-1.157-2.314-1.858zm18.227 13.095-1.543-1.544c1.151-.646 2.273-1.448 3.295-2.362l1.61 1.611c-1.089.963-2.249 1.734-3.362 2.295zm-3.451-.624 1.431 1.431c-1.462.419-2.664.371-3.235-.199l-.586-.586c.765-.106 1.57-.326 2.39-.646zm10.662-2.916c.384-.511.739-1.037 1.061-1.572.238.823.618 1.692 1.115 2.575l-1.352 1.352c-.448-.873-.731-1.678-.824-2.355zm-2.435-.17-1.6-1.601c.913-1.018 1.719-2.143 2.365-3.292l1.537 1.537c-.59 1.161-1.382 2.315-2.302 3.356zm.381-9.874c-.11 1.993-1.512 5.02-4.087 7.589-3.506 3.499-8.105 4.9-9.41 3.599-1.057-1.054-.329-4.067 1.59-6.913.931.257 1.906.405 2.918.405 3.713 0 6.996-1.854 8.989-4.68zm-20.859 12.392-1.345-1.345c.588-1.044 1.02-2.073 1.237-3.023l.726.726c.411.412.346 1.741-.618 3.642zm.844-7.247c-.229-.098-.462-.208-.697-.328l1.344-1.344c.468.264.931.499 1.383.693.581.249 1.13.425 1.648.539l-.723.723c-.418.418-1.578.306-2.955-.283zm-3.291 7.632 1.382 1.382c-.117.171-.245.345-.375.521h-2.528c.544-.616 1.058-1.253 1.521-1.903zm4.728-5.148c.235.031.462.047.68.047.93 0 1.697-.278 2.252-.834l.302-.302c-.871 2.344-.974 4.66.433 6.064.123.122.263.216.4.317l-.001.001 1.76 1.758h-7.104c1.911-2.981 2.395-5.562 1.278-7.051zm18.927 4.39c.043-.043.084-.09.127-.134.318.881.793 1.826 1.408 2.795h-4.895c1.196-.741 2.349-1.65 3.36-2.661zm3.964 2.661c-.128-.173-.253-.345-.372-.517l1.389-1.388c.464.65.979 1.289 1.523 1.905zm6.608-9.184c.837-.587 1.67-1.265 2.478-2.014l1.408 1.408c-.72.662-1.465 1.261-2.208 1.782-.558-.434-1.12-.825-1.678-1.176zm5.771-5.721 1.39 1.389c-.535.773-1.157 1.553-1.858 2.314l-1.404-1.404c.677-.734 1.309-1.51 1.872-2.299zm2.784-1.069c-.098.229-.209.461-.328.696l-1.356-1.356c.589-1.045 1.021-2.075 1.237-3.026l.729.729c.42.42.308 1.579-.282 2.957zm-10.986-1.547c1.794-1.794 3.746-3.195 5.495-3.944 1.376-.591 2.536-.703 2.956-.283.861.861-.358 4.581-4.228 8.45-1.22 1.219-2.523 2.252-3.796 3.037-.03-.013-.062-.03-.092-.043-1.535-.657-2.864-.835-3.896-.558.105-.706.098-1.351-.001-1.936.8-1.542 2.045-3.205 3.562-4.723zm-5.759 7.341-1.437-1.437c.32-.819.543-1.625.647-2.389l.583.583c.567.568.635 1.761.207 3.243zm-11.72-19.82c4.962 0 9 4.037 9 9s-4.038 9-9 9-9-4.037-9-9 4.038-9 9-9zm-10.956 8.127c-.023.289-.044.578-.044.873 0 3.839 1.98 7.221 4.97 9.189-1.497.042-4.535-1.351-7.672-4.487-3.869-3.869-5.088-7.589-4.228-8.45.689-.689 3.533-.027 6.974 2.875zm-9.792-.057.721-.721c.115.517.294 1.066.542 1.645.194.452.429.915.693 1.383l-1.344 1.344c-.12-.235-.23-.467-.328-.696-.591-1.377-.703-2.536-.284-2.955zm1.677 5.414 1.382-1.382c.554.772 1.185 1.543 1.879 2.293l-1.403 1.403c-.701-.761-1.323-1.54-1.858-2.314zm23.071 44.516h-8c-12.347 0-22.449-9.78-22.975-22h53.949c-.525 12.22-10.627 22-22.974 22zm-33-24v-2h29.044c.018 0 .034.004.052.004.015 0 .032-.004.048-.004h28.856l.001 2z"/><path d="m56.764 41.149-1.978-.299c-.096.637-.227 1.275-.388 1.899l1.937.5c.179-.688.323-1.395.429-2.1z"/><path d="m55.672 45.351-1.873-.701c-1.541 4.11-4.488 7.592-8.301 9.801l1.003 1.73c4.212-2.441 7.469-6.287 9.171-10.83z"/><path d="m9.163 47.277 1.792-.887c-.279-.564-.533-1.15-.754-1.741l-1.873.701c.245.655.526 1.303.835 1.927z"/><path d="m11.386 50.832 1.582-1.225c-.388-.5-.753-1.024-1.087-1.558l-1.695 1.061c.369.589.772 1.168 1.2 1.722z"/><path d="m14.268 53.876 1.309-1.512c-.478-.414-.939-.855-1.372-1.313l-1.453 1.375c.477.505.988.993 1.516 1.45z"/><path d="m32 15c-.551 0-1-.448-1-1h-2c0 1.302.839 2.402 2 2.816v2.184h2v-2h2v-3c0-1.654-1.346-3-3-3-.551 0-1-.448-1-1v-1h1c.551 0 1 .448 1 1h2c0-1.302-.839-2.402-2-2.816v-2.184h-2v2h-2v3c0 1.654 1.346 3 3 3 .551 0 1 .448 1 1v1z"/><circle cx="38" cy="12" r="1"/><circle cx="26" cy="12" r="1"/><path d="m32 55c-1.103 0-2-.897-2-2h-2c0 1.859 1.28 3.411 3 3.858v2.142h2v-2h3v-4c0-2.206-1.794-4-4-4-1.103 0-2-.897-2-2v-2h2c1.103 0 2 .897 2 2h2c0-1.859-1.28-3.411-3-3.858v-2.142h-2v2h-3v4c0 2.206 1.794 4 4 4 1.103 0 2 .897 2 2v2z"/></svg>